<svg width="250" height="70" viewBox="0 0 250 70" fill="none" xmlns="http://www.w3.org/2000/svg">
<g clip-path="url(#clip0_213_2)">
<path fill-rule="evenodd" clip-rule="evenodd" d="M3.7603 54.125C6.23849 60.1455 9.87575 65.6202 14.4653 70.238L22.6203 62.037C19.1026 58.4977 16.3148 54.3015 14.4153 49.687C10.5723 40.3555 10.5723 29.8835 14.4153 20.552C16.3148 15.9375 19.1026 11.7414 22.6203 8.202L14.4653 0C9.87573 4.61775 6.23846 10.0925 3.7603 16.113C-1.25343 28.2877 -1.25343 41.9503 3.7603 54.125ZM21.6753 47.683C23.4314 51.6973 25.9745 55.3186 29.1543 58.333L36.9063 50.956C34.7371 48.8994 33.0022 46.4287 31.8043 43.69C30.6223 40.973 30.0123 38.06 30.0123 35.119C30.0142 32.1692 30.6243 29.2515 31.8043 26.548C33.0021 23.8093 34.737 21.3386 36.9063 19.282L29.1543 11.905C25.9744 14.9194 23.4313 18.5408 21.6753 22.555C19.9413 26.539 19.0493 30.808 19.0493 35.119C19.0518 39.443 19.9458 43.72 21.6753 47.683ZM39.5963 42.255C40.58 44.6968 42.0304 46.9234 43.8663 48.81V48.809L50.0023 42.517C48.9748 41.4617 48.163 40.2161 47.6123 38.85C46.4921 36.0748 46.4921 32.9732 47.6123 30.198C48.163 28.8319 48.9748 27.5863 50.0023 26.531L43.8663 20.238C42.0305 22.1244 40.5801 24.3506 39.5963 26.792C38.6063 29.244 38.0963 31.871 38.0963 34.524C38.0958 37.1734 38.6051 39.7981 39.5963 42.255Z" fill="#31CBDC"/>
<path d="M76.292 43.675H75.746C75.671 43.675 75.634 43.633 75.634 43.549V42.387H74.64C73.641 42.387 72.783 42.07 72.064 41.435C71.354 40.801 71 39.858 71 38.607V36.97C71 36.336 71.103 35.77 71.308 35.276C71.523 34.772 71.803 34.376 72.148 34.086C72.4945 33.8013 72.8876 33.5787 73.31 33.428C73.73 33.278 74.173 33.204 74.64 33.204H75.634V32.126C75.634 32.042 75.671 32 75.746 32H76.292C76.367 32 76.404 32.042 76.404 32.126V33.204H77.384C78.383 33.204 79.241 33.522 79.96 34.156C80.679 34.791 81.038 35.729 81.038 36.97V38.608C81.038 39.252 80.931 39.826 80.716 40.33C80.511 40.825 80.231 41.217 79.876 41.506C79.5322 41.7945 79.1383 42.0176 78.714 42.164C78.294 42.314 77.851 42.388 77.384 42.388H76.404V43.55C76.404 43.634 76.367 43.675 76.292 43.675ZM71.784 38.607C71.784 39.624 72.064 40.39 72.624 40.903C73.184 41.407 73.87 41.659 74.682 41.659H75.634V33.931H74.682C73.861 33.931 73.17 34.183 72.61 34.687C72.06 35.182 71.784 35.942 71.784 36.969V38.607ZM76.404 33.931V41.66H77.356C78.159 41.66 78.84 41.408 79.4 40.904C79.97 40.391 80.254 39.625 80.254 38.608V36.97C80.254 35.944 79.974 35.183 79.414 34.688C78.854 34.184 78.168 33.932 77.356 33.932L76.404 33.931ZM89.153 38.131V39.447C89.153 39.522 89.111 39.559 89.027 39.559H84.197V40.343C84.197 40.931 84.397 41.398 84.799 41.743C85.2 42.089 85.704 42.261 86.311 42.261C87.141 42.261 87.902 41.963 88.593 41.365C88.668 41.318 88.723 41.328 88.761 41.393L89.013 41.715C89.069 41.771 89.064 41.827 88.999 41.883C88.196 42.583 87.295 42.933 86.297 42.933C85.513 42.933 84.841 42.7 84.281 42.233C83.721 41.766 83.441 41.137 83.441 40.343V38.131C83.441 37.263 83.711 36.596 84.253 36.129C84.794 35.653 85.48 35.415 86.311 35.415C87.141 35.415 87.823 35.653 88.355 36.129C88.887 36.596 89.153 37.263 89.153 38.131ZM88.425 38.131C88.425 37.487 88.229 36.988 87.837 36.633C87.454 36.278 86.946 36.101 86.311 36.101C85.658 36.101 85.14 36.278 84.757 36.633C84.384 36.979 84.197 37.478 84.197 38.131V38.929H88.425V38.131ZM91.306 44.697H90.83C90.746 44.697 90.704 44.66 90.704 44.585V42.233C90.704 42.149 90.746 42.107 90.83 42.107H91.138C91.493 41.92 91.764 41.384 91.95 40.497C92.146 39.61 92.3 38.01 92.412 35.695C92.412 35.611 92.45 35.569 92.524 35.569H96.864C96.948 35.569 96.99 35.611 96.99 35.695V42.107H97.732C97.807 42.107 97.844 42.149 97.844 42.233V44.585C97.844 44.66 97.807 44.697 97.732 44.697H97.256C97.172 44.697 97.13 44.66 97.13 44.585V42.78H91.418V44.586C91.418 44.661 91.381 44.697 91.306 44.697ZM93.098 36.241C92.958 39.685 92.59 41.641 91.992 42.107H96.248V36.241H93.098ZM105.401 38.131V39.447C105.401 39.522 105.359 39.559 105.275 39.559H100.445V40.343C100.445 40.931 100.645 41.398 101.047 41.743C101.448 42.089 101.952 42.261 102.559 42.261C103.389 42.261 104.15 41.963 104.841 41.365C104.915 41.318 104.971 41.328 105.009 41.393L105.261 41.715C105.317 41.771 105.312 41.827 105.247 41.883C104.444 42.583 103.543 42.933 102.545 42.933C101.761 42.933 101.089 42.7 100.529 42.233C99.969 41.766 99.689 41.137 99.689 40.343V38.131C99.689 37.263 99.959 36.596 100.501 36.129C101.042 35.653 101.728 35.415 102.559 35.415C103.389 35.415 104.071 35.653 104.603 36.129C105.135 36.596 105.401 37.263 105.401 38.131ZM104.673 38.131C104.673 37.487 104.477 36.988 104.085 36.633C103.702 36.278 103.193 36.101 102.559 36.101C101.905 36.101 101.387 36.278 101.005 36.633C100.631 36.979 100.445 37.478 100.445 38.131V38.929H104.673V38.131ZM107.874 35.919C108.712 35.587 109.605 35.416 110.506 35.415C111.449 35.415 112.186 35.667 112.718 36.171C113.26 36.666 113.53 37.417 113.53 38.425V39.937C113.53 40.907 113.264 41.65 112.732 42.163C112.2 42.677 111.468 42.933 110.534 42.933C109.827 42.9389 109.133 42.7448 108.532 42.373V45.327C108.532 45.402 108.495 45.439 108.42 45.439H107.916C107.832 45.439 107.79 45.402 107.79 45.327V36.06C107.79 35.995 107.818 35.947 107.874 35.919ZM110.492 42.261C112.014 42.261 112.774 41.487 112.774 39.937V38.425C112.774 36.866 112.014 36.087 110.492 36.087C109.783 36.087 109.13 36.199 108.532 36.423V41.645C109.106 42.0481 109.791 42.2634 110.492 42.261ZM115.898 36.143C116.589 35.658 117.443 35.415 118.46 35.415C119.319 35.415 119.977 35.644 120.434 36.101C120.901 36.558 121.134 37.211 121.134 38.061V42.317C121.134 42.383 121.101 42.429 121.036 42.457C120.205 42.7762 119.322 42.9376 118.432 42.933C117.583 42.933 116.878 42.737 116.318 42.345C115.767 41.953 115.492 41.393 115.492 40.665C115.492 39.955 115.753 39.41 116.276 39.027C116.799 38.644 117.517 38.453 118.432 38.453C118.927 38.453 119.58 38.528 120.392 38.677V38.075C120.392 36.759 119.739 36.101 118.432 36.101C117.62 36.101 116.906 36.292 116.29 36.675C116.234 36.722 116.183 36.713 116.136 36.647L115.898 36.283C115.851 36.218 115.851 36.171 115.898 36.143ZM116.248 40.665C116.248 41.16 116.449 41.552 116.85 41.841C117.251 42.121 117.779 42.261 118.432 42.261C119.099 42.2586 119.762 42.1451 120.392 41.925V39.321C119.748 39.181 119.091 39.1106 118.432 39.111C116.976 39.111 116.248 39.629 116.248 40.665ZM125.08 40.245C124.94 41.215 124.721 41.883 124.422 42.247C124.133 42.611 123.675 42.802 123.05 42.821C122.975 42.821 122.938 42.784 122.938 42.709V42.275C122.938 42.191 122.975 42.149 123.05 42.149C123.423 42.131 123.708 41.981 123.904 41.701C124.109 41.411 124.263 40.857 124.366 40.035C124.497 39.111 124.609 37.665 124.702 35.695C124.721 35.611 124.763 35.569 124.828 35.569H129.294C129.369 35.569 129.406 35.611 129.406 35.695V42.667C129.406 42.742 129.369 42.779 129.294 42.779H128.79C128.706 42.779 128.664 42.742 128.664 42.667V36.241H125.416C125.352 37.5793 125.24 38.9148 125.08 40.245ZM134.99 42.779H132.302C132.218 42.779 132.176 42.742 132.176 42.667V35.695C132.176 35.611 132.218 35.569 132.302 35.569H132.806C132.881 35.569 132.918 35.611 132.918 35.695V38.047H134.99C135.821 38.047 136.474 38.267 136.95 38.705C137.435 39.135 137.678 39.718 137.678 40.455C137.678 41.23 137.445 41.813 136.978 42.205C136.511 42.588 135.849 42.779 134.99 42.779ZM132.918 38.691V42.135H134.892C136.245 42.135 136.922 41.57 136.922 40.441C136.931 39.881 136.759 39.451 136.404 39.153C136.059 38.845 135.555 38.691 134.892 38.691H132.918ZM140.533 42.779H140.029C139.945 42.779 139.903 42.742 139.903 42.667V35.695C139.903 35.611 139.945 35.569 140.029 35.569H140.533C140.608 35.569 140.645 35.611 140.645 35.695V38.705H144.663V35.695C144.663 35.611 144.701 35.569 144.775 35.569H145.279C145.363 35.569 145.405 35.611 145.405 35.695V42.667C145.405 42.742 145.363 42.779 145.279 42.779H144.775C144.701 42.779 144.663 42.742 144.663 42.667V39.377H140.645V42.667C140.645 42.742 140.608 42.779 140.533 42.779ZM148.052 36.143C148.742 35.658 149.596 35.415 150.614 35.415C151.472 35.415 152.13 35.644 152.588 36.101C153.054 36.558 153.288 37.211 153.288 38.061V42.317C153.288 42.383 153.255 42.429 153.19 42.457C152.359 42.776 151.476 42.9374 150.586 42.933C149.736 42.933 149.032 42.737 148.472 42.345C147.921 41.953 147.646 41.393 147.646 40.665C147.646 39.955 147.907 39.41 148.43 39.027C148.952 38.644 149.671 38.453 150.586 38.453C151.08 38.453 151.734 38.528 152.546 38.677V38.075C152.546 36.759 151.892 36.101 150.586 36.101C149.774 36.101 149.06 36.292 148.444 36.675C148.388 36.722 148.336 36.713 148.29 36.647L148.052 36.283C148.005 36.218 148.005 36.171 148.052 36.143ZM148.402 40.665C148.402 41.16 148.602 41.552 149.004 41.841C149.405 42.121 149.932 42.261 150.586 42.261C151.239 42.261 151.892 42.149 152.546 41.925V39.321C151.902 39.181 151.245 39.1106 150.586 39.111C149.13 39.111 148.402 39.629 148.402 40.665ZM156.17 42.779H155.526C155.414 42.779 155.39 42.732 155.456 42.639L157.738 39.979C157.047 39.923 156.506 39.704 156.114 39.321C155.731 38.929 155.54 38.421 155.54 37.795C155.54 37.067 155.778 36.516 156.254 36.143C156.73 35.76 157.388 35.569 158.228 35.569H160.846C160.92 35.569 160.958 35.611 160.958 35.695V42.667C160.958 42.742 160.92 42.779 160.846 42.779H160.342C160.258 42.779 160.216 42.742 160.216 42.667V40.035H158.564L156.31 42.709C156.263 42.756 156.216 42.779 156.17 42.779ZM156.282 37.795C156.282 38.309 156.445 38.705 156.772 38.985C157.108 39.255 157.593 39.391 158.228 39.391H160.216V36.213H158.228C156.93 36.213 156.282 36.741 156.282 37.795ZM172.75 42.079C172.05 42.6355 171.181 42.9368 170.286 42.933C169.409 42.933 168.709 42.686 168.186 42.191C167.673 41.687 167.416 41.052 167.416 40.287V38.061C167.416 37.296 167.673 36.666 168.186 36.171C168.709 35.667 169.409 35.415 170.286 35.415C171.089 35.415 171.84 35.658 172.54 36.143C172.605 36.199 172.619 36.255 172.582 36.311L172.344 36.675C172.288 36.731 172.232 36.741 172.176 36.703C171.624 36.3103 170.963 36.0998 170.286 36.101C169.623 36.101 169.101 36.288 168.718 36.661C168.345 37.025 168.158 37.491 168.158 38.061V40.287C168.158 40.866 168.345 41.342 168.718 41.715C169.101 42.079 169.623 42.261 170.286 42.261C171.014 42.261 171.705 42.023 172.358 41.547C172.423 41.491 172.479 41.496 172.526 41.561L172.764 41.911C172.811 41.986 172.806 42.041 172.75 42.079ZM180.309 38.131V39.447C180.309 39.522 180.267 39.559 180.183 39.559H175.353V40.343C175.353 40.931 175.553 41.398 175.955 41.743C176.356 42.089 176.86 42.261 177.467 42.261C178.297 42.261 179.058 41.963 179.749 41.365C179.823 41.318 179.879 41.328 179.917 41.393L180.169 41.715C180.225 41.771 180.22 41.827 180.155 41.883C179.352 42.583 178.451 42.933 177.453 42.933C176.669 42.933 175.997 42.7 175.437 42.233C174.877 41.766 174.597 41.137 174.597 40.343V38.131C174.597 37.263 174.867 36.596 175.409 36.129C175.95 35.653 176.636 35.415 177.467 35.415C178.297 35.415 178.979 35.653 179.511 36.129C180.043 36.596 180.309 37.263 180.309 38.131ZM179.581 38.131C179.581 37.487 179.385 36.988 178.993 36.633C178.61 36.278 178.101 36.101 177.467 36.101C176.813 36.101 176.295 36.278 175.913 36.633C175.539 36.979 175.353 37.478 175.353 38.131V38.929H179.581V38.131ZM184.886 42.779H184.382C184.307 42.779 184.27 42.742 184.27 42.667V36.241H181.89C181.806 36.241 181.764 36.204 181.764 36.129V35.695C181.764 35.611 181.806 35.569 181.89 35.569H187.378C187.462 35.569 187.504 35.611 187.504 35.695V36.129C187.504 36.204 187.462 36.241 187.378 36.241H185.012V42.667C185.012 42.742 184.97 42.779 184.886 42.779ZM192.283 42.779H189.595C189.511 42.779 189.469 42.742 189.469 42.667V35.695C189.469 35.611 189.511 35.569 189.595 35.569H190.099C190.174 35.569 190.211 35.611 190.211 35.695V38.047H192.283C193.114 38.047 193.767 38.267 194.243 38.705C194.729 39.135 194.971 39.718 194.971 40.455C194.971 41.23 194.738 41.813 194.271 42.205C193.805 42.588 193.142 42.779 192.283 42.779ZM190.211 38.691V42.135H192.185C193.539 42.135 194.215 41.57 194.215 40.441C194.225 39.881 194.052 39.451 193.697 39.153C193.352 38.845 192.848 38.691 192.185 38.691H190.211ZM77.342 63.613H76.88C76.796 63.613 76.754 63.576 76.754 63.501V61.78H71.224C71.149 61.78 71.112 61.743 71.112 61.668V54.696C71.112 54.612 71.149 54.57 71.224 54.57H71.728C71.812 54.57 71.854 54.612 71.854 54.696V61.108H75.858V54.696C75.858 54.612 75.9 54.57 75.984 54.57H76.488C76.563 54.57 76.6 54.612 76.6 54.696V61.108H77.342C77.417 61.108 77.454 61.15 77.454 61.234V63.502C77.454 63.577 77.417 63.613 77.342 63.613ZM85.01 57.131V58.447C85.01 58.522 84.968 58.559 84.884 58.559H80.054V59.343C80.054 59.931 80.254 60.398 80.656 60.743C81.058 61.089 81.562 61.261 82.168 61.261C82.998 61.261 83.76 60.963 84.45 60.365C84.525 60.318 84.58 60.328 84.618 60.393L84.87 60.715C84.926 60.771 84.922 60.827 84.856 60.883C84.054 61.583 83.153 61.933 82.154 61.933C81.37 61.933 80.698 61.7 80.138 61.233C79.578 60.766 79.298 60.137 79.298 59.343V57.131C79.298 56.263 79.568 55.596 80.11 55.129C80.652 54.653 81.338 54.415 82.168 54.415C82.998 54.415 83.68 54.653 84.212 55.129C84.744 55.596 85.01 56.263 85.01 57.131ZM84.282 57.131C84.282 56.487 84.086 55.988 83.694 55.633C83.312 55.278 82.803 55.101 82.168 55.101C81.515 55.101 80.997 55.278 80.614 55.633C80.241 55.979 80.054 56.478 80.054 57.131V57.929H84.282V57.131ZM88.058 61.779H87.554C87.47 61.779 87.428 61.742 87.428 61.667V54.695C87.428 54.611 87.47 54.569 87.554 54.569H88.058C88.133 54.569 88.17 54.611 88.17 54.695V57.705H92.188V54.695C92.188 54.611 92.225 54.569 92.3 54.569H92.804C92.888 54.569 92.93 54.611 92.93 54.695V61.667C92.93 61.742 92.888 61.779 92.804 61.779H92.3C92.225 61.779 92.188 61.742 92.188 61.667V58.377H88.17V61.667C88.17 61.742 88.133 61.779 88.058 61.779ZM98.012 61.779H97.508C97.434 61.779 97.396 61.742 97.396 61.667V55.241H95.016C94.932 55.241 94.89 55.204 94.89 55.129V54.695C94.89 54.611 94.932 54.569 95.016 54.569H100.504C100.588 54.569 100.63 54.611 100.63 54.695V55.129C100.63 55.204 100.588 55.241 100.504 55.241H98.138V61.667C98.138 61.742 98.096 61.779 98.012 61.779ZM102.652 54.919C103.49 54.5869 104.383 54.4159 105.284 54.415C106.226 54.415 106.964 54.667 107.496 55.171C108.037 55.666 108.308 56.417 108.308 57.425V58.937C108.308 59.907 108.042 60.65 107.51 61.163C106.978 61.677 106.245 61.933 105.312 61.933C104.605 61.9391 103.911 61.7449 103.31 61.373V64.327C103.31 64.402 103.272 64.439 103.198 64.439H102.694C102.61 64.439 102.568 64.402 102.568 64.327V55.06C102.568 54.995 102.596 54.947 102.652 54.919ZM105.27 61.261C106.791 61.261 107.552 60.487 107.552 58.937V57.425C107.552 55.866 106.791 55.087 105.27 55.087C104.56 55.087 103.907 55.199 103.31 55.423V60.645C103.907 61.055 104.56 61.261 105.27 61.261ZM116.499 59.245C116.499 60.039 116.233 60.687 115.701 61.191C115.179 61.686 114.451 61.933 113.517 61.933C112.593 61.933 111.865 61.686 111.333 61.191C110.801 60.687 110.535 60.039 110.535 59.245V57.117C110.535 56.324 110.801 55.675 111.333 55.171C111.865 54.667 112.593 54.415 113.517 54.415C114.441 54.415 115.169 54.667 115.701 55.171C116.233 55.675 116.499 56.324 116.499 57.117V59.245ZM111.291 59.245C111.291 59.852 111.483 60.342 111.865 60.715C112.257 61.079 112.808 61.261 113.517 61.261C114.245 61.261 114.801 61.079 115.183 60.715C115.566 60.342 115.757 59.852 115.757 59.245V57.117C115.757 56.51 115.566 56.025 115.183 55.661C114.801 55.288 114.245 55.101 113.517 55.101C112.808 55.101 112.257 55.288 111.865 55.661C111.483 56.025 111.291 56.511 111.291 57.117V59.245ZM121.947 61.779H119.133C119.049 61.779 119.007 61.742 119.007 61.667V54.695C119.007 54.611 119.049 54.569 119.133 54.569H121.947C122.713 54.569 123.301 54.742 123.711 55.087C124.131 55.433 124.341 55.867 124.341 56.389C124.341 56.79 124.225 57.131 123.991 57.411C123.758 57.691 123.45 57.882 123.067 57.985C124.094 58.246 124.607 58.853 124.607 59.805C124.607 60.393 124.374 60.869 123.907 61.233C123.441 61.597 122.787 61.779 121.947 61.779ZM119.749 55.199V57.747H121.919C122.423 57.747 122.829 57.635 123.137 57.411C123.445 57.178 123.599 56.856 123.599 56.445C123.599 56.072 123.459 55.773 123.179 55.549C122.899 55.316 122.479 55.199 121.919 55.199H119.749ZM119.749 58.349V61.149H121.919C122.563 61.149 123.049 61.023 123.375 60.771C123.702 60.519 123.865 60.174 123.865 59.735C123.865 59.287 123.693 58.946 123.347 58.713C123.002 58.471 122.526 58.349 121.919 58.349H119.749ZM136.534 61.779H135.904C135.839 61.779 135.792 61.756 135.764 61.709L132.74 58.293L131.69 59.273V61.667C131.69 61.742 131.653 61.779 131.578 61.779H131.088C131.004 61.779 130.962 61.742 130.962 61.667V54.695C130.962 54.611 131.004 54.569 131.088 54.569H131.578C131.653 54.569 131.69 54.611 131.69 54.695V58.363L135.568 54.625C135.596 54.588 135.647 54.569 135.722 54.569H136.352C136.399 54.569 136.427 54.583 136.436 54.611C136.455 54.639 136.445 54.671 136.408 54.709L133.244 57.775L136.604 61.639C136.669 61.732 136.646 61.779 136.534 61.779ZM143.799 59.245C143.799 60.039 143.533 60.687 143.001 61.191C142.479 61.686 141.751 61.933 140.817 61.933C139.893 61.933 139.165 61.686 138.633 61.191C138.101 60.687 137.835 60.039 137.835 59.245V57.117C137.835 56.324 138.101 55.675 138.633 55.171C139.165 54.667 139.893 54.415 140.817 54.415C141.741 54.415 142.469 54.667 143.001 55.171C143.533 55.675 143.799 56.324 143.799 57.117V59.245ZM138.591 59.245C138.591 59.852 138.783 60.342 139.165 60.715C139.557 61.079 140.108 61.261 140.817 61.261C141.545 61.261 142.101 61.079 142.483 60.715C142.866 60.342 143.057 59.852 143.057 59.245V57.117C143.057 56.51 142.866 56.025 142.483 55.661C142.101 55.288 141.545 55.101 140.817 55.101C140.108 55.101 139.557 55.288 139.165 55.661C138.783 56.025 138.591 56.511 138.591 57.117V59.245ZM146.363 54.919C147.201 54.587 148.094 54.416 148.995 54.415C149.938 54.415 150.675 54.667 151.207 55.171C151.749 55.666 152.019 56.417 152.019 57.425V58.937C152.019 59.907 151.753 60.65 151.221 61.163C150.689 61.677 149.957 61.933 149.023 61.933C148.316 61.9389 147.622 61.7448 147.021 61.373V64.327C147.021 64.402 146.984 64.439 146.909 64.439H146.405C146.321 64.439 146.279 64.402 146.279 64.327V55.06C146.279 54.995 146.307 54.947 146.363 54.919ZM148.981 61.261C150.503 61.261 151.263 60.487 151.263 58.937V57.425C151.263 55.866 150.503 55.087 148.981 55.087C148.272 55.087 147.619 55.199 147.021 55.423V60.645C147.595 61.0481 148.28 61.2634 148.981 61.261ZM154.569 54.919C155.407 54.587 156.3 54.416 157.201 54.415C158.144 54.415 158.881 54.667 159.413 55.171C159.955 55.666 160.225 56.417 160.225 57.425V58.937C160.225 59.907 159.959 60.65 159.427 61.163C158.895 61.677 158.163 61.933 157.229 61.933C156.522 61.9389 155.828 61.7448 155.227 61.373V64.327C155.227 64.402 155.19 64.439 155.115 64.439H154.611C154.527 64.439 154.485 64.402 154.485 64.327V55.06C154.485 54.995 154.513 54.947 154.569 54.919ZM157.187 61.261C158.709 61.261 159.469 60.487 159.469 58.937V57.425C159.469 55.866 158.709 55.087 157.187 55.087C156.478 55.087 155.825 55.199 155.227 55.423V60.645C155.801 61.0481 156.486 61.2634 157.187 61.261ZM168.179 57.131V58.447C168.179 58.522 168.137 58.559 168.053 58.559H163.223V59.343C163.223 59.931 163.424 60.398 163.825 60.743C164.226 61.089 164.73 61.261 165.337 61.261C166.168 61.261 166.928 60.963 167.619 60.365C167.694 60.318 167.75 60.328 167.787 60.393L168.039 60.715C168.095 60.771 168.09 60.827 168.025 60.883C167.222 61.583 166.322 61.933 165.323 61.933C164.539 61.933 163.867 61.7 163.307 61.233C162.747 60.766 162.467 60.137 162.467 59.343V57.131C162.467 56.263 162.738 55.596 163.279 55.129C163.82 54.653 164.506 54.415 165.337 54.415C166.168 54.415 166.849 54.653 167.381 55.129C167.913 55.596 168.179 56.263 168.179 57.131ZM167.451 57.131C167.451 56.487 167.255 55.988 166.863 55.633C166.48 55.278 165.972 55.101 165.337 55.101C164.684 55.101 164.166 55.278 163.783 55.633C163.41 55.979 163.223 56.478 163.223 57.131V57.929H167.451V57.131ZM176.169 61.779H175.539C175.473 61.779 175.427 61.756 175.399 61.709L172.375 58.293L171.325 59.273V61.667C171.325 61.742 171.287 61.779 171.213 61.779H170.723C170.639 61.779 170.597 61.742 170.597 61.667V54.695C170.597 54.611 170.639 54.569 170.723 54.569H171.213C171.287 54.569 171.325 54.611 171.325 54.695V58.363L175.203 54.625C175.231 54.588 175.282 54.569 175.357 54.569H175.987C176.033 54.569 176.061 54.583 176.071 54.611C176.089 54.639 176.08 54.671 176.043 54.709L172.879 57.775L176.239 61.639C176.304 61.732 176.281 61.779 176.169 61.779ZM184.363 63.613H183.901C183.817 63.613 183.775 63.576 183.775 63.501V61.78H178.245C178.17 61.78 178.133 61.743 178.133 61.668V54.696C178.133 54.612 178.17 54.57 178.245 54.57H178.749C178.833 54.57 178.875 54.612 178.875 54.696V61.108H182.879V54.696C182.879 54.612 182.921 54.57 183.005 54.57H183.509C183.583 54.57 183.621 54.612 183.621 54.696V61.108H184.363C184.437 61.108 184.475 61.15 184.475 61.234V63.502C184.475 63.577 184.437 63.613 184.363 63.613ZM187.368 61.779H186.752C186.668 61.779 186.626 61.742 186.626 61.667V54.695C186.626 54.611 186.668 54.569 186.752 54.569H187.256C187.33 54.569 187.368 54.611 187.368 54.695V59.231C187.368 59.912 187.363 60.407 187.354 60.715H187.368C187.657 60.22 187.998 59.675 188.39 59.077L191.54 54.639C191.56 54.6174 191.583 54.6001 191.61 54.5881C191.636 54.576 191.665 54.5695 191.694 54.569H192.296C192.37 54.569 192.408 54.611 192.408 54.695V61.667C192.408 61.742 192.37 61.779 192.296 61.779H191.792C191.708 61.779 191.666 61.742 191.666 61.667V56.515C191.675 56.132 191.68 55.857 191.68 55.689C191.12 56.576 190.784 57.103 190.672 57.271L187.508 61.709C187.48 61.756 187.433 61.779 187.368 61.779ZM195.915 61.779H195.299C195.215 61.779 195.173 61.742 195.173 61.667V54.695C195.173 54.611 195.215 54.569 195.299 54.569H195.803C195.878 54.569 195.915 54.611 195.915 54.695V59.231C195.915 59.912 195.911 60.407 195.901 60.715H195.915C196.205 60.22 196.545 59.675 196.937 59.077L200.087 54.639C200.107 54.6175 200.13 54.6003 200.157 54.5882C200.183 54.5762 200.212 54.5696 200.241 54.569H200.843C200.918 54.569 200.955 54.611 200.955 54.695V61.667C200.955 61.742 200.918 61.779 200.843 61.779H200.339C200.255 61.779 200.213 61.742 200.213 61.667V56.515C200.223 56.132 200.227 55.857 200.227 55.689C199.667 56.576 199.331 57.103 199.219 57.271L196.055 61.709C196.027 61.756 195.981 61.779 195.915 61.779ZM212.743 61.079C212.043 61.6355 211.174 61.9368 210.279 61.933C209.402 61.933 208.702 61.686 208.179 61.191C207.666 60.687 207.409 60.052 207.409 59.287V57.061C207.409 56.296 207.666 55.666 208.179 55.171C208.702 54.667 209.402 54.415 210.279 54.415C211.082 54.415 211.833 54.658 212.533 55.143C212.598 55.199 212.612 55.255 212.575 55.311L212.337 55.675C212.281 55.731 212.225 55.741 212.169 55.703C211.617 55.3103 210.956 55.0998 210.279 55.101C209.616 55.101 209.094 55.288 208.711 55.661C208.338 56.025 208.151 56.491 208.151 57.061V59.287C208.151 59.866 208.338 60.342 208.711 60.715C209.094 61.079 209.616 61.261 210.279 61.261C211.007 61.261 211.698 61.023 212.351 60.547C212.416 60.491 212.472 60.496 212.519 60.561L212.757 60.911C212.804 60.986 212.799 61.041 212.743 61.079ZM216.17 59.245C216.03 60.215 215.811 60.883 215.512 61.247C215.223 61.611 214.766 61.802 214.14 61.821C214.066 61.821 214.028 61.784 214.028 61.709V61.275C214.028 61.191 214.066 61.149 214.14 61.149C214.514 61.131 214.798 60.981 214.994 60.701C215.2 60.411 215.354 59.857 215.456 59.035C215.587 58.111 215.699 56.665 215.792 54.695C215.811 54.611 215.853 54.569 215.918 54.569H220.384C220.459 54.569 220.496 54.611 220.496 54.695V61.667C220.496 61.742 220.459 61.779 220.384 61.779H219.88C219.796 61.779 219.754 61.742 219.754 61.667V55.241H216.506C216.442 56.5793 216.33 57.9148 216.17 59.245ZM228.082 60.379V54.695C228.082 54.611 228.124 54.569 228.208 54.569H228.712C228.787 54.569 228.824 54.611 228.824 54.695V61.821C228.824 62.68 228.591 63.351 228.124 63.837C227.658 64.332 226.958 64.579 226.024 64.579C225.044 64.579 224.162 64.234 223.378 63.543C223.322 63.487 223.318 63.431 223.364 63.375L223.63 63.011C223.677 62.946 223.728 62.941 223.784 62.997C224.512 63.594 225.259 63.897 226.024 63.907C227.424 63.897 228.115 63.189 228.096 61.779V61.093C227.478 61.3809 226.804 61.529 226.122 61.527C225.264 61.527 224.559 61.294 224.008 60.827C223.467 60.36 223.196 59.684 223.196 58.797V54.695C223.196 54.611 223.234 54.569 223.308 54.569H223.812C223.896 54.569 223.938 54.611 223.938 54.695V58.769C223.938 59.459 224.139 59.978 224.54 60.323C224.951 60.669 225.506 60.841 226.206 60.841C226.897 60.841 227.522 60.687 228.082 60.379ZM234.339 58.111L236.929 61.639C236.957 61.677 236.962 61.709 236.943 61.737C236.934 61.765 236.906 61.779 236.859 61.779H236.229C236.164 61.779 236.117 61.756 236.089 61.709L233.891 58.643L231.679 61.709C231.651 61.756 231.605 61.779 231.539 61.779H230.909C230.863 61.779 230.83 61.765 230.811 61.737C230.802 61.709 230.811 61.677 230.839 61.639L233.429 58.111L230.993 54.709C230.937 54.616 230.961 54.569 231.063 54.569H231.679C231.745 54.569 231.791 54.597 231.819 54.653L233.891 57.579L235.949 54.653C235.961 54.6266 235.981 54.6044 236.006 54.5894C236.031 54.5744 236.06 54.5673 236.089 54.569H236.705C236.752 54.569 236.78 54.583 236.789 54.611C236.808 54.639 236.803 54.671 236.775 54.709L234.339 58.111ZM238.663 55.143C239.354 54.658 240.208 54.415 241.225 54.415C242.084 54.415 242.742 54.644 243.199 55.101C243.666 55.558 243.899 56.211 243.899 57.061V61.317C243.899 61.383 243.867 61.429 243.801 61.457C242.97 61.7762 242.087 61.9376 241.197 61.933C240.348 61.933 239.643 61.737 239.083 61.345C238.533 60.953 238.257 60.393 238.257 59.665C238.257 58.955 238.519 58.41 239.041 58.027C239.564 57.644 240.283 57.453 241.197 57.453C241.692 57.453 242.345 57.528 243.157 57.677V57.075C243.157 55.759 242.504 55.101 241.197 55.101C240.385 55.101 239.671 55.292 239.055 55.675C238.999 55.722 238.948 55.713 238.901 55.647L238.663 55.283C238.617 55.218 238.617 55.171 238.663 55.143ZM239.013 59.665C239.013 60.16 239.214 60.552 239.615 60.841C240.017 61.121 240.544 61.261 241.197 61.261C241.851 61.261 242.504 61.149 243.157 60.925V58.321C242.513 58.181 241.856 58.1106 241.197 58.111C239.741 58.111 239.013 58.629 239.013 59.665Z" fill="#1C8594"/>
<path d="M72.0005 23.871H70.2365C70.0325 23.871 69.9605 23.768 70.0205 23.564L74.3405 11.216C74.4005 11.072 74.4965 11 74.6285 11H76.6805C76.8125 11 76.9085 11.072 76.9685 11.216L81.2885 23.564C81.3485 23.768 81.2765 23.87 81.0725 23.87H79.3085C79.1405 23.87 79.0385 23.798 79.0025 23.654L78.1205 20.936H73.1885L72.3065 23.654C72.2585 23.798 72.1565 23.87 72.0005 23.87V23.871ZM75.6185 13.376L73.8005 18.974H77.5085L75.6905 13.376H75.6185ZM86.5185 23.87H84.9705C84.7905 23.87 84.7005 23.78 84.7005 23.6V16.382H82.1805C82.0005 16.382 81.9105 16.292 81.9105 16.112V14.798C81.9105 14.63 82.0005 14.546 82.1805 14.546H89.2905C89.4705 14.546 89.5605 14.63 89.5605 14.798V16.112C89.5605 16.292 89.4705 16.382 89.2905 16.382H86.7885V23.6C86.7885 23.78 86.6985 23.87 86.5185 23.87ZM93.6835 23.87H92.1535C91.9735 23.87 91.8835 23.78 91.8835 23.6V14.798C91.8835 14.63 91.9735 14.546 92.1535 14.546H93.8995C94.0555 14.546 94.1575 14.606 94.2055 14.726L96.7975 19.856H96.8335L99.4255 14.726C99.4735 14.606 99.5755 14.546 99.7315 14.546H101.477C101.657 14.546 101.747 14.63 101.747 14.798V23.6C101.747 23.78 101.657 23.87 101.477 23.87H99.9475C99.7795 23.87 99.6955 23.78 99.6955 23.6V20.414C99.6955 19.766 99.7075 18.866 99.7315 17.714H99.7135C99.4099 18.4165 99.0918 19.1126 98.7595 19.802L97.5895 22.124C97.5415 22.244 97.4395 22.304 97.2835 22.304H96.3475C96.1915 22.304 96.0895 22.244 96.0415 22.124L94.8715 19.802C94.5428 19.1109 94.2248 18.4148 93.9175 17.714H93.8995C93.9193 18.614 93.9373 19.514 93.9535 20.414V23.6C93.9535 23.78 93.8635 23.87 93.6835 23.87ZM112.814 20.45C112.814 21.566 112.442 22.454 111.698 23.114C110.954 23.762 109.958 24.086 108.71 24.086C107.462 24.086 106.466 23.762 105.722 23.114C104.978 22.454 104.606 21.566 104.606 20.45V18.038C104.606 16.91 104.978 16.01 105.722 15.338C106.466 14.666 107.462 14.33 108.71 14.33C109.958 14.33 110.954 14.666 111.698 15.338C112.442 16.01 112.814 16.91 112.814 18.038V20.451V20.45ZM106.712 20.45C106.712 21.626 107.378 22.214 108.71 22.214C109.358 22.214 109.85 22.064 110.186 21.764C110.534 21.464 110.708 21.026 110.708 20.45V18.038C110.708 17.45 110.534 17 110.186 16.688C109.838 16.364 109.346 16.202 108.71 16.202C108.062 16.202 107.564 16.358 107.216 16.67C106.88 16.982 106.712 17.438 106.712 18.038V20.451V20.45ZM122.585 23.078C121.657 23.7437 120.542 24.0967 119.399 24.086C118.151 24.086 117.167 23.756 116.447 23.096C115.727 22.436 115.367 21.554 115.367 20.45V17.948C115.367 16.844 115.727 15.968 116.447 15.32C117.167 14.66 118.145 14.33 119.381 14.33C120.425 14.33 121.409 14.618 122.333 15.194C122.477 15.29 122.501 15.416 122.405 15.572L121.703 16.652C121.607 16.784 121.481 16.808 121.325 16.724C120.754 16.3837 120.101 16.2035 119.435 16.202C118.799 16.202 118.307 16.352 117.959 16.652C117.623 16.952 117.455 17.384 117.455 17.948V20.468C117.455 21.02 117.623 21.452 117.959 21.764C118.307 22.064 118.793 22.214 119.417 22.214C120.149 22.214 120.845 21.998 121.505 21.566C121.673 21.47 121.799 21.494 121.883 21.638L122.639 22.718C122.735 22.862 122.717 22.982 122.585 23.078ZM131.349 27.29H129.801C129.633 27.29 129.549 27.2 129.549 27.02V23.87H128.253C127.221 23.87 126.357 23.558 125.661 22.934C124.965 22.31 124.617 21.392 124.617 20.18V18.218C124.617 17.054 124.977 16.154 125.697 15.518C126.417 14.87 127.329 14.546 128.433 14.546H129.549V11.271C129.549 11.091 129.633 11.001 129.801 11.001H131.349C131.517 11.001 131.601 11.091 131.601 11.271V14.547H132.879C133.983 14.547 134.871 14.871 135.543 15.519C136.215 16.155 136.551 17.055 136.551 18.219V20.181C136.551 21.381 136.209 22.299 135.525 22.935C134.841 23.559 134.019 23.871 133.059 23.871H131.601V27.021C131.601 27.201 131.517 27.29 131.349 27.29ZM126.669 20.144C126.669 20.804 126.825 21.284 127.137 21.584C127.449 21.872 127.941 22.016 128.613 22.016H129.549V16.382H128.523C127.287 16.382 126.669 17.012 126.669 18.272V20.144ZM131.601 22.016H132.537C133.209 22.016 133.701 21.872 134.013 21.584C134.325 21.284 134.481 20.804 134.481 20.144V18.272C134.481 17.012 133.863 16.382 132.627 16.382H131.601V22.016ZM146.97 18.02V19.838C146.97 20.006 146.88 20.09 146.7 20.09H141.228V20.594C141.228 21.134 141.396 21.548 141.732 21.836C142.08 22.112 142.548 22.25 143.136 22.25C144.012 22.25 144.858 21.974 145.674 21.422C145.818 21.326 145.938 21.344 146.034 21.476L146.772 22.466C146.892 22.598 146.874 22.724 146.718 22.844C145.674 23.672 144.456 24.086 143.064 24.086C141.96 24.086 141.024 23.786 140.256 23.186C139.5 22.574 139.122 21.704 139.122 20.576V18.021C139.122 16.785 139.506 15.861 140.274 15.249C141.042 14.637 141.978 14.331 143.082 14.331C144.174 14.331 145.092 14.637 145.836 15.249C146.592 15.861 146.97 16.785 146.97 18.021V18.02ZM144.936 18.002C144.936 17.378 144.762 16.916 144.414 16.616C144.066 16.316 143.622 16.166 143.082 16.166C141.846 16.166 141.228 16.778 141.228 18.002V18.47H144.936V18.002ZM149.93 14.978C151.034 14.546 152.246 14.33 153.566 14.33C154.814 14.33 155.816 14.66 156.572 15.32C157.328 15.98 157.706 16.964 157.706 18.272V20.252C157.706 21.416 157.334 22.346 156.59 23.042C155.846 23.738 154.892 24.086 153.728 24.086C153.068 24.086 152.432 23.954 151.82 23.69V27.02C151.82 27.2 151.73 27.29 151.55 27.29H150.002C149.822 27.29 149.732 27.2 149.732 27.02V15.266C149.732 15.122 149.798 15.026 149.93 14.978ZM153.548 22.251C154.904 22.251 155.582 21.591 155.582 20.271V18.255C155.582 17.511 155.408 16.977 155.06 16.653C154.712 16.329 154.196 16.167 153.512 16.167C152.792 16.167 152.228 16.251 151.82 16.419V21.747C152.312 22.083 152.888 22.251 153.548 22.251ZM160.474 15.285C161.398 14.649 162.574 14.331 164.002 14.331C165.166 14.331 166.078 14.637 166.738 15.249C167.41 15.849 167.746 16.761 167.746 17.985V23.241C167.75 23.3063 167.732 23.371 167.697 23.4259C167.661 23.4808 167.609 23.5232 167.548 23.547C166.384 23.907 165.178 24.087 163.93 24.087C162.766 24.087 161.806 23.847 161.05 23.367C160.294 22.887 159.916 22.125 159.916 21.081C159.916 20.133 160.27 19.419 160.978 18.939C161.698 18.447 162.658 18.201 163.858 18.201C164.338 18.201 164.938 18.249 165.658 18.345V18.003C165.658 17.355 165.52 16.893 165.244 16.617C164.98 16.329 164.518 16.185 163.858 16.185C162.97 16.185 162.202 16.377 161.554 16.761C161.41 16.869 161.29 16.845 161.194 16.689L160.474 15.591C160.39 15.459 160.39 15.357 160.474 15.285ZM162.022 21.063C162.022 21.471 162.196 21.777 162.544 21.981C162.892 22.173 163.354 22.269 163.93 22.269C164.482 22.269 165.058 22.197 165.658 22.053V20.019C165.081 19.9286 164.497 19.8805 163.912 19.875C162.652 19.875 162.022 20.271 162.022 21.063ZM182.495 23.079C181.567 23.7447 180.452 24.0977 179.309 24.087C178.061 24.087 177.077 23.757 176.357 23.097C175.637 22.437 175.277 21.555 175.277 20.451V17.949C175.277 16.845 175.637 15.969 176.357 15.321C177.077 14.661 178.055 14.331 179.291 14.331C180.335 14.331 181.319 14.619 182.243 15.195C182.387 15.291 182.411 15.417 182.315 15.573L181.613 16.653C181.517 16.785 181.391 16.809 181.235 16.725C180.664 16.3847 180.011 16.2045 179.345 16.203C178.709 16.203 178.217 16.353 177.869 16.653C177.533 16.953 177.365 17.385 177.365 17.949V20.469C177.365 21.021 177.533 21.453 177.869 21.765C178.217 22.065 178.703 22.215 179.327 22.215C180.059 22.215 180.755 21.999 181.415 21.567C181.583 21.471 181.709 21.495 181.793 21.639L182.549 22.719C182.645 22.863 182.627 22.983 182.495 23.079ZM187.619 20.811C187.391 21.951 187.043 22.755 186.575 23.223C186.107 23.679 185.363 23.925 184.343 23.961C184.175 23.961 184.091 23.871 184.091 23.691V22.377C184.091 22.221 184.175 22.125 184.343 22.089C184.691 22.065 184.961 21.921 185.153 21.657C185.357 21.393 185.525 20.919 185.657 20.235C185.861 19.047 186.011 17.235 186.107 14.799C186.131 14.631 186.221 14.547 186.377 14.547H192.497C192.677 14.547 192.767 14.631 192.767 14.799V23.601C192.767 23.781 192.677 23.871 192.497 23.871H190.949C190.769 23.871 190.679 23.781 190.679 23.601V16.383H188.051C187.991 18.099 187.847 19.575 187.619 20.811ZM201.598 21.351V14.799C201.598 14.631 201.688 14.547 201.868 14.547H203.416C203.596 14.547 203.686 14.631 203.686 14.799V23.277C203.686 26.073 202.348 27.471 199.672 27.471C198.232 27.471 197.056 27.093 196.144 26.337C196.012 26.241 195.994 26.121 196.09 25.977L196.864 24.879C196.96 24.723 197.074 24.693 197.206 24.789C198.01 25.341 198.826 25.617 199.654 25.617C200.326 25.617 200.83 25.437 201.166 25.077C201.502 24.729 201.652 24.129 201.616 23.277C200.92 23.493 200.278 23.601 199.69 23.601C198.658 23.601 197.758 23.283 196.99 22.647C196.222 21.999 195.838 21.093 195.838 19.929V14.799C195.838 14.631 195.928 14.547 196.108 14.547H197.674C197.842 14.547 197.926 14.631 197.926 14.799V19.839C197.926 20.487 198.118 20.961 198.502 21.261C198.886 21.561 199.378 21.711 199.978 21.711C200.59 21.723 201.13 21.603 201.598 21.351ZM211.527 19.191L214.425 23.547C214.545 23.763 214.491 23.871 214.263 23.871H212.355C212.29 23.8739 212.225 23.8586 212.168 23.8268C212.111 23.795 212.064 23.748 212.031 23.691L210.231 20.631L208.431 23.691C208.399 23.748 208.352 23.795 208.295 23.8268C208.238 23.8586 208.173 23.8739 208.107 23.871H206.217C205.977 23.871 205.917 23.763 206.037 23.547L208.935 19.191L206.199 14.853C206.151 14.769 206.145 14.697 206.181 14.637C206.217 14.577 206.283 14.547 206.379 14.547H208.197C208.329 14.547 208.437 14.607 208.521 14.727L210.231 17.733L211.941 14.727C211.976 14.6718 212.023 14.6263 212.08 14.5948C212.137 14.5633 212.201 14.5468 212.265 14.547H214.083C214.179 14.547 214.245 14.577 214.281 14.637C214.317 14.697 214.311 14.769 214.263 14.853L211.527 19.191ZM216.482 15.285C217.406 14.649 218.582 14.331 220.01 14.331C221.174 14.331 222.086 14.637 222.746 15.249C223.418 15.849 223.754 16.761 223.754 17.985V23.241C223.758 23.3063 223.74 23.371 223.705 23.4259C223.669 23.4808 223.617 23.5232 223.556 23.547C222.392 23.907 221.186 24.087 219.938 24.087C218.774 24.087 217.814 23.847 217.058 23.367C216.302 22.887 215.924 22.125 215.924 21.081C215.924 20.133 216.278 19.419 216.986 18.939C217.706 18.447 218.666 18.201 219.866 18.201C220.346 18.201 220.946 18.249 221.666 18.345V18.003C221.666 17.355 221.528 16.893 221.252 16.617C220.988 16.329 220.526 16.185 219.866 16.185C218.978 16.185 218.21 16.377 217.562 16.761C217.418 16.869 217.298 16.845 217.202 16.689L216.482 15.591C216.398 15.459 216.398 15.357 216.482 15.285ZM218.03 21.063C218.03 21.471 218.204 21.777 218.552 21.981C218.9 22.173 219.362 22.269 219.938 22.269C220.49 22.269 221.066 22.197 221.666 22.053V20.019C221.089 19.9286 220.505 19.8805 219.92 19.875C218.66 19.875 218.03 20.271 218.03 21.063Z" fill="#1C8594"/>
</g>
<defs>
<clipPath id="clip0_213_2">
<rect width="250" height="70" fill="white"/>
</clipPath>
</defs>
</svg>
